<?xml version="1.0" encoding="UTF-8" standalone="no"?>
<!-- Created with Inkscape (http://www.inkscape.org/) -->

<svg
   xmlns:dc="http://purl.org/dc/elements/1.1/"
   xmlns:cc="http://creativecommons.org/ns#"
   xmlns:rdf="http://www.w3.org/1999/02/22-rdf-syntax-ns#"
   xmlns:svg="http://www.w3.org/2000/svg"
   xmlns="http://www.w3.org/2000/svg"
   xmlns:inkscape="http://www.inkscape.org/namespaces/inkscape"
   version="1.1"
   width="141.7325"
   height="141.7325"
   id="svg2"
   xml:space="preserve"><metadata
     id="metadata8"><rdf:RDF><cc:Work
         rdf:about=""><dc:format>image/svg+xml</dc:format><dc:type
           rdf:resource="http://purl.org/dc/dcmitype/StillImage" /></cc:Work></rdf:RDF></metadata><defs
     id="defs6"><clipPath
       id="clipPath16"><path
         d="m 0,0 113.386,0 0,113.386 L 0,113.386 0,0 z"
         inkscape:connector-curvature="0"
         id="path18" /></clipPath></defs><g
     transform="matrix(1.25,0,0,-1.25,0,141.7325)"
     id="g10"><g
       id="g12"><g
         clip-path="url(#clipPath16)"
         id="g14"><g
           transform="translate(56.6929,3.6468)"
           id="g20"><path
             d="m 0,0 c 29.297,0 53.046,23.75 53.046,53.046 0,29.297 -23.749,53.046 -53.046,53.046 -29.297,0 -53.046,-23.749 -53.046,-53.046 C -53.046,23.75 -29.297,0 0,0 z"
             inkscape:connector-curvature="0"
             id="path22"
             style="fill:none;stroke:#231f20;stroke-width:7.29400015;stroke-linecap:butt;stroke-linejoin:miter;stroke-miterlimit:4;stroke-opacity:1;stroke-dasharray:none" /></g><g
           transform="translate(76.9544,47.5574)"
           id="g24"><path
             d="M 0,0 C -0.366,0.366 -0.854,0.488 -1.221,0.122 -1.343,0 -1.587,-0.366 -1.953,-0.977 -4.883,-7.08 -12.817,-23.558 -19.652,-27.22 c -1.099,-0.488 -2.075,-0.732 -2.93,-0.732 -2.807,0 -3.906,2.197 -2.563,6.591 0.977,3.54 1.953,6.347 2.563,8.911 2.32,10.375 -4.76,13.549 -15.502,10.619 5.981,6.591 14.892,10.742 18.066,11.718 0.366,0.122 0.61,0.244 0.854,0.244 0.855,0.122 2.319,0.611 1.953,-0.732 -0.488,-2.319 1.099,-4.272 3.174,-4.272 1.587,0 3.173,1.586 3.173,3.906 0,1.831 -1.098,4.272 -4.394,4.272 -6.347,0 -16.845,-6.225 -23.07,-12.084 1.587,4.028 3.418,8.788 5.371,13.549 4.883,12.206 10.986,27.708 12.695,31.98 0.366,0.855 0.61,1.587 -0.367,1.587 -0.366,-0.122 -0.61,-0.122 -0.732,-0.122 -0.122,0 -0.366,0 -0.732,-0.122 -1.831,-0.366 -4.028,-0.488 -6.47,-0.488 -0.488,0.122 -0.854,-0.245 -1.22,-1.099 -2.564,-6.347 -4.883,-13.061 -7.324,-19.408 -6.958,-18.065 -14.159,-35.642 -20.995,-53.586 -0.366,-0.976 -0.854,-2.319 -1.221,-3.295 -0.366,-1.343 0.977,-1.099 1.953,-1.099 l 4.761,0 c 1.465,0 1.709,0.122 2.563,1.953 1.221,3.052 4.028,10.375 4.028,10.375 0.855,1.953 2.93,7.446 5.493,14.282 5.493,0.976 11.84,-0.611 9.643,-9.277 -0.854,-2.807 -1.587,-5.493 -2.441,-8.056 -1.953,-6.714 2.319,-10.253 6.713,-10.253 6.348,0 11.718,4.76 15.991,10.985 2.319,3.052 4.15,6.348 5.736,9.643 1.831,3.296 3.052,6.347 4.395,8.667 C -0.122,-1.953 0.366,-0.366 0,0"
             inkscape:connector-curvature="0"
             id="path26"
             style="fill:#231f20;fill-opacity:1;fill-rule:nonzero;stroke:none" /></g></g></g></g></svg>